<svg width="391" height="391" viewBox="0 0 391 391" fill="none" xmlns="http://www.w3.org/2000/svg">
<rect width="391" height="391" fill="white"/>
<path d="M195.5 120C210.157 120 224.556 123.858 237.25 131.187C249.944 138.516 260.484 149.056 267.813 161.75C275.142 174.444 279 188.843 279 203.5C279 218.157 275.142 232.556 267.813 245.25L224.425 220.2C227.357 215.123 228.9 209.363 228.9 203.5C228.9 197.637 227.357 191.877 224.425 186.8C221.494 181.723 217.277 177.506 212.2 174.575C207.123 171.643 201.363 170.1 195.5 170.1V120Z" fill="#C17604"/>
<path d="M267.813 245.25C260.484 257.944 249.944 268.484 237.25 275.813L212.2 232.425C217.277 229.494 221.494 225.277 224.425 220.2L267.813 245.25Z" fill="#27272A"/>
<path d="M237.25 275.813C224.556 283.142 210.157 287 195.5 287V236.9C201.363 236.9 207.123 235.357 212.2 232.425L237.25 275.813Z" fill="#1F0302"/>
<path d="M195.5 287C173.354 287 152.116 278.203 136.457 262.543C120.797 246.884 112 225.646 112 203.5C112 181.354 120.797 160.116 136.457 144.457C152.116 128.797 173.354 120 195.5 120V170.1C186.642 170.1 178.146 173.619 171.883 179.883C165.619 186.146 162.1 194.642 162.1 203.5C162.1 212.358 165.619 220.854 171.883 227.117C178.146 233.381 186.642 236.9 195.5 236.9V287Z" fill="#884405"/>
<path d="M302.097 150.001C302.097 150.922 301.931 151.717 301.598 152.387C301.266 153.058 300.81 153.575 300.23 153.939C299.651 154.302 298.989 154.484 298.245 154.484C297.5 154.484 296.838 154.302 296.259 153.939C295.679 153.575 295.223 153.058 294.891 152.387C294.558 151.717 294.392 150.922 294.392 150.001C294.392 149.081 294.558 148.285 294.891 147.615C295.223 146.944 295.679 146.427 296.259 146.064C296.838 145.7 297.5 145.518 298.245 145.518C298.989 145.518 299.651 145.7 300.23 146.064C300.81 146.427 301.266 146.944 301.598 147.615C301.931 148.285 302.097 149.081 302.097 150.001ZM301.074 150.001C301.074 149.245 300.948 148.608 300.695 148.088C300.445 147.568 300.105 147.174 299.676 146.907C299.25 146.64 298.773 146.507 298.245 146.507C297.716 146.507 297.237 146.64 296.808 146.907C296.382 147.174 296.043 147.568 295.79 148.088C295.54 148.608 295.415 149.245 295.415 150.001C295.415 150.757 295.54 151.395 295.79 151.914C296.043 152.434 296.382 152.828 296.808 153.095C297.237 153.362 297.716 153.495 298.245 153.495C298.773 153.495 299.25 153.362 299.676 153.095C300.105 152.828 300.445 152.434 300.695 151.914C300.948 151.395 301.074 150.757 301.074 150.001ZM303.737 154.365V147.819H304.709V148.808H304.777C304.897 148.484 305.112 148.221 305.425 148.02C305.737 147.818 306.09 147.717 306.482 147.717C306.556 147.717 306.648 147.718 306.759 147.721C306.87 147.724 306.953 147.728 307.01 147.734V148.757C306.976 148.748 306.898 148.735 306.776 148.718C306.656 148.699 306.53 148.689 306.397 148.689C306.078 148.689 305.794 148.755 305.544 148.889C305.297 149.02 305.101 149.201 304.956 149.434C304.814 149.664 304.743 149.927 304.743 150.223V154.365H303.737ZM310.475 154.501C309.929 154.501 309.448 154.363 309.03 154.088C308.612 153.809 308.286 153.417 308.05 152.912C307.814 152.403 307.696 151.802 307.696 151.109C307.696 150.422 307.814 149.825 308.05 149.319C308.286 148.814 308.614 148.423 309.034 148.147C309.455 147.872 309.941 147.734 310.492 147.734C310.918 147.734 311.254 147.805 311.502 147.947C311.752 148.086 311.942 148.245 312.073 148.424C312.206 148.601 312.31 148.745 312.384 148.859H312.469V145.637H313.475V154.365H312.503V153.359H312.384C312.31 153.478 312.205 153.629 312.068 153.811C311.932 153.99 311.737 154.15 311.485 154.292C311.232 154.432 310.895 154.501 310.475 154.501ZM310.611 153.598C311.014 153.598 311.355 153.493 311.634 153.282C311.912 153.069 312.124 152.775 312.269 152.4C312.414 152.022 312.486 151.586 312.486 151.092C312.486 150.603 312.415 150.176 312.273 149.809C312.131 149.44 311.921 149.153 311.642 148.949C311.364 148.741 311.02 148.637 310.611 148.637C310.185 148.637 309.83 148.747 309.546 148.966C309.264 149.182 309.053 149.476 308.911 149.848C308.772 150.217 308.702 150.632 308.702 151.092C308.702 151.558 308.773 151.981 308.915 152.362C309.06 152.74 309.273 153.041 309.554 153.265C309.838 153.487 310.191 153.598 310.611 153.598ZM318.201 154.501C317.57 154.501 317.026 154.362 316.568 154.083C316.114 153.802 315.763 153.41 315.516 152.907C315.272 152.402 315.149 151.814 315.149 151.143C315.149 150.473 315.272 149.882 315.516 149.37C315.763 148.856 316.107 148.456 316.547 148.169C316.99 147.879 317.507 147.734 318.098 147.734C318.439 147.734 318.776 147.791 319.108 147.905C319.441 148.018 319.743 148.203 320.016 148.458C320.289 148.711 320.506 149.047 320.668 149.464C320.83 149.882 320.911 150.396 320.911 151.007V151.433H315.865V150.564H319.888C319.888 150.194 319.814 149.865 319.666 149.575C319.522 149.285 319.314 149.057 319.044 148.889C318.777 148.721 318.462 148.637 318.098 148.637C317.698 148.637 317.351 148.737 317.058 148.936C316.769 149.132 316.546 149.387 316.389 149.703C316.233 150.018 316.155 150.356 316.155 150.717V151.297C316.155 151.791 316.24 152.21 316.411 152.554C316.584 152.895 316.824 153.155 317.131 153.333C317.438 153.51 317.794 153.598 318.201 153.598C318.465 153.598 318.703 153.561 318.916 153.487C319.132 153.41 319.318 153.297 319.475 153.146C319.631 152.993 319.752 152.802 319.837 152.575L320.808 152.848C320.706 153.177 320.534 153.467 320.293 153.717C320.051 153.964 319.753 154.157 319.398 154.297C319.043 154.433 318.644 154.501 318.201 154.501ZM322.441 154.365V147.819H323.412V148.808H323.48C323.6 148.484 323.816 148.221 324.128 148.02C324.441 147.818 324.793 147.717 325.185 147.717C325.259 147.717 325.351 147.718 325.462 147.721C325.573 147.724 325.656 147.728 325.713 147.734V148.757C325.679 148.748 325.601 148.735 325.479 148.718C325.36 148.699 325.233 148.689 325.1 148.689C324.781 148.689 324.497 148.755 324.247 148.889C324 149.02 323.804 149.201 323.659 149.434C323.517 149.664 323.446 149.927 323.446 150.223V154.365H322.441ZM335.19 147.819C335.138 147.387 334.931 147.052 334.567 146.814C334.204 146.575 333.758 146.456 333.229 146.456C332.843 146.456 332.505 146.518 332.215 146.643C331.928 146.768 331.704 146.94 331.542 147.159C331.383 147.378 331.303 147.626 331.303 147.905C331.303 148.137 331.359 148.338 331.469 148.505C331.583 148.67 331.728 148.808 331.904 148.919C332.08 149.027 332.265 149.116 332.458 149.187C332.651 149.255 332.829 149.311 332.991 149.353L333.877 149.592C334.104 149.652 334.357 149.734 334.636 149.839C334.917 149.944 335.185 150.088 335.441 150.27C335.699 150.449 335.913 150.679 336.08 150.96C336.248 151.241 336.332 151.586 336.332 151.995C336.332 152.467 336.208 152.893 335.961 153.274C335.716 153.655 335.359 153.957 334.887 154.182C334.418 154.406 333.849 154.518 333.178 154.518C332.553 154.518 332.012 154.417 331.555 154.216C331.1 154.014 330.742 153.733 330.481 153.372C330.222 153.011 330.076 152.592 330.042 152.115H331.133C331.161 152.444 331.272 152.717 331.465 152.933C331.661 153.146 331.908 153.305 332.207 153.41C332.508 153.512 332.832 153.564 333.178 153.564C333.582 153.564 333.944 153.498 334.265 153.368C334.586 153.234 334.84 153.049 335.028 152.814C335.215 152.575 335.309 152.297 335.309 151.978C335.309 151.689 335.228 151.453 335.066 151.271C334.904 151.089 334.691 150.941 334.427 150.828C334.163 150.714 333.877 150.615 333.57 150.53L332.496 150.223C331.815 150.027 331.275 149.747 330.877 149.383C330.479 149.02 330.28 148.544 330.28 147.956C330.28 147.467 330.413 147.041 330.677 146.677C330.944 146.311 331.302 146.027 331.751 145.825C332.202 145.62 332.707 145.518 333.263 145.518C333.826 145.518 334.326 145.619 334.763 145.821C335.201 146.02 335.547 146.292 335.803 146.639C336.062 146.985 336.198 147.379 336.212 147.819H335.19ZM340.677 154.501C340.046 154.501 339.502 154.362 339.045 154.083C338.59 153.802 338.24 153.41 337.992 152.907C337.748 152.402 337.626 151.814 337.626 151.143C337.626 150.473 337.748 149.882 337.992 149.37C338.24 148.856 338.583 148.456 339.024 148.169C339.467 147.879 339.984 147.734 340.575 147.734C340.916 147.734 341.252 147.791 341.585 147.905C341.917 148.018 342.22 148.203 342.492 148.458C342.765 148.711 342.982 149.047 343.144 149.464C343.306 149.882 343.387 150.396 343.387 151.007V151.433H338.342V150.564H342.365C342.365 150.194 342.291 149.865 342.143 149.575C341.998 149.285 341.791 149.057 341.521 148.889C341.254 148.721 340.938 148.637 340.575 148.637C340.174 148.637 339.828 148.737 339.535 148.936C339.245 149.132 339.022 149.387 338.866 149.703C338.71 150.018 338.632 150.356 338.632 150.717V151.297C338.632 151.791 338.717 152.21 338.887 152.554C339.061 152.895 339.301 153.155 339.607 153.333C339.914 153.51 340.271 153.598 340.677 153.598C340.941 153.598 341.18 153.561 341.393 153.487C341.609 153.41 341.795 153.297 341.951 153.146C342.107 152.993 342.228 152.802 342.313 152.575L343.285 152.848C343.183 153.177 343.011 153.467 342.769 153.717C342.528 153.964 342.23 154.157 341.875 154.297C341.519 154.433 341.12 154.501 340.677 154.501ZM344.917 154.365V147.819H345.889V148.808H345.957C346.076 148.484 346.292 148.221 346.605 148.02C346.917 147.818 347.269 147.717 347.661 147.717C347.735 147.717 347.828 147.718 347.938 147.721C348.049 147.724 348.133 147.728 348.19 147.734V148.757C348.156 148.748 348.078 148.735 347.955 148.718C347.836 148.699 347.71 148.689 347.576 148.689C347.258 148.689 346.974 148.755 346.724 148.889C346.477 149.02 346.281 149.201 346.136 149.434C345.994 149.664 345.923 149.927 345.923 150.223V154.365H344.917ZM354.933 147.819L352.513 154.365H351.49L349.07 147.819H350.161L351.968 153.035H352.036L353.843 147.819H354.933ZM358.771 154.501C358.14 154.501 357.596 154.362 357.139 154.083C356.684 153.802 356.333 153.41 356.086 152.907C355.842 152.402 355.72 151.814 355.72 151.143C355.72 150.473 355.842 149.882 356.086 149.37C356.333 148.856 356.677 148.456 357.117 148.169C357.561 147.879 358.078 147.734 358.669 147.734C359.009 147.734 359.346 147.791 359.678 147.905C360.011 148.018 360.313 148.203 360.586 148.458C360.859 148.711 361.076 149.047 361.238 149.464C361.4 149.882 361.481 150.396 361.481 151.007V151.433H356.436V150.564H360.458C360.458 150.194 360.384 149.865 360.237 149.575C360.092 149.285 359.884 149.057 359.615 148.889C359.348 148.721 359.032 148.637 358.669 148.637C358.268 148.637 357.921 148.737 357.629 148.936C357.339 149.132 357.116 149.387 356.96 149.703C356.803 150.018 356.725 150.356 356.725 150.717V151.297C356.725 151.791 356.811 152.21 356.981 152.554C357.154 152.895 357.394 153.155 357.701 153.333C358.008 153.51 358.365 153.598 358.771 153.598C359.035 153.598 359.274 153.561 359.487 153.487C359.703 153.41 359.889 153.297 360.045 153.146C360.201 152.993 360.322 152.802 360.407 152.575L361.379 152.848C361.277 153.177 361.105 153.467 360.863 153.717C360.622 153.964 360.323 154.157 359.968 154.297C359.613 154.433 359.214 154.501 358.771 154.501ZM365.482 154.501C364.937 154.501 364.455 154.363 364.038 154.088C363.62 153.809 363.294 153.417 363.058 152.912C362.822 152.403 362.704 151.802 362.704 151.109C362.704 150.422 362.822 149.825 363.058 149.319C363.294 148.814 363.622 148.423 364.042 148.147C364.463 147.872 364.948 147.734 365.5 147.734C365.926 147.734 366.262 147.805 366.509 147.947C366.759 148.086 366.95 148.245 367.08 148.424C367.214 148.601 367.318 148.745 367.392 148.859H367.477V145.637H368.482V154.365H367.511V153.359H367.392C367.318 153.478 367.213 153.629 367.076 153.811C366.94 153.99 366.745 154.15 366.492 154.292C366.24 154.432 365.903 154.501 365.482 154.501ZM365.619 153.598C366.022 153.598 366.363 153.493 366.642 153.282C366.92 153.069 367.132 152.775 367.277 152.4C367.421 152.022 367.494 151.586 367.494 151.092C367.494 150.603 367.423 150.176 367.281 149.809C367.139 149.44 366.928 149.153 366.65 148.949C366.372 148.741 366.028 148.637 365.619 148.637C365.193 148.637 364.838 148.747 364.553 148.966C364.272 149.182 364.061 149.476 363.919 149.848C363.779 150.217 363.71 150.632 363.71 151.092C363.71 151.558 363.781 151.981 363.923 152.362C364.068 152.74 364.281 153.041 364.562 153.265C364.846 153.487 365.198 153.598 365.619 153.598Z" fill="black" fill-opacity="0.7"/>
<path d="M360.002 162.637V171.365H358.421V164.176H358.37L356.328 165.48V164.031L358.497 162.637H360.002ZM365.414 171.484C364.996 171.481 364.588 171.409 364.191 171.267C363.793 171.122 363.435 170.887 363.117 170.564C362.799 170.237 362.546 169.804 362.358 169.264C362.171 168.721 362.078 168.049 362.081 167.248C362.081 166.501 362.161 165.835 362.32 165.25C362.479 164.664 362.708 164.17 363.006 163.767C363.304 163.36 363.664 163.051 364.084 162.838C364.507 162.625 364.98 162.518 365.503 162.518C366.051 162.518 366.537 162.626 366.96 162.842C367.387 163.058 367.73 163.353 367.992 163.728C368.253 164.101 368.415 164.521 368.477 164.99H366.922C366.843 164.655 366.679 164.387 366.432 164.189C366.188 163.987 365.878 163.886 365.503 163.886C364.898 163.886 364.432 164.149 364.105 164.674C363.781 165.2 363.618 165.922 363.615 166.839H363.675C363.814 166.589 363.995 166.375 364.216 166.196C364.438 166.017 364.688 165.879 364.966 165.782C365.247 165.683 365.544 165.633 365.857 165.633C366.368 165.633 366.827 165.755 367.233 166C367.642 166.244 367.966 166.581 368.205 167.01C368.443 167.436 368.561 167.924 368.558 168.476C368.561 169.049 368.431 169.565 368.166 170.022C367.902 170.477 367.534 170.835 367.063 171.096C366.591 171.358 366.041 171.487 365.414 171.484ZM365.405 170.206C365.715 170.206 365.992 170.13 366.236 169.98C366.48 169.829 366.674 169.626 366.816 169.37C366.958 169.115 367.027 168.828 367.024 168.51C367.027 168.197 366.959 167.914 366.82 167.662C366.683 167.409 366.495 167.208 366.253 167.061C366.012 166.913 365.736 166.839 365.426 166.839C365.196 166.839 364.982 166.883 364.783 166.971C364.584 167.059 364.411 167.182 364.263 167.338C364.115 167.491 363.999 167.67 363.914 167.875C363.831 168.076 363.789 168.292 363.786 168.522C363.789 168.826 363.86 169.106 363.999 169.362C364.138 169.618 364.33 169.822 364.574 169.976C364.818 170.129 365.095 170.206 365.405 170.206Z" fill="#C17604"/>
<path d="M266.367 162.585L273.676 158.365H369.676" stroke="#C17604"/>
<path d="M287.308 254.603V263.331H286.285L281.53 256.478H281.444V263.331H280.388V254.603H281.41L286.183 261.473H286.268V254.603H287.308ZM291.945 263.467C291.355 263.467 290.836 263.326 290.39 263.045C289.947 262.764 289.6 262.37 289.35 261.865C289.103 261.359 288.98 260.768 288.98 260.092C288.98 259.41 289.103 258.815 289.35 258.306C289.6 257.798 289.947 257.403 290.39 257.122C290.836 256.841 291.355 256.7 291.945 256.7C292.536 256.7 293.053 256.841 293.497 257.122C293.943 257.403 294.289 257.798 294.536 258.306C294.786 258.815 294.911 259.41 294.911 260.092C294.911 260.768 294.786 261.359 294.536 261.865C294.289 262.37 293.943 262.764 293.497 263.045C293.053 263.326 292.536 263.467 291.945 263.467ZM291.945 262.564C292.394 262.564 292.764 262.448 293.053 262.218C293.343 261.988 293.558 261.686 293.697 261.311C293.836 260.936 293.906 260.529 293.906 260.092C293.906 259.654 293.836 259.247 293.697 258.869C293.558 258.491 293.343 258.186 293.053 257.953C292.764 257.72 292.394 257.603 291.945 257.603C291.497 257.603 291.127 257.72 290.837 257.953C290.548 258.186 290.333 258.491 290.194 258.869C290.055 259.247 289.985 259.654 289.985 260.092C289.985 260.529 290.055 260.936 290.194 261.311C290.333 261.686 290.548 261.988 290.837 262.218C291.127 262.448 291.497 262.564 291.945 262.564ZM299.293 256.785V257.637H295.901V256.785H299.293ZM296.89 255.217H297.895V261.456C297.895 261.74 297.937 261.953 298.019 262.095C298.104 262.234 298.212 262.328 298.343 262.376C298.476 262.421 298.617 262.444 298.765 262.444C298.875 262.444 298.966 262.439 299.037 262.427C299.108 262.413 299.165 262.402 299.208 262.393L299.412 263.296C299.344 263.322 299.249 263.348 299.127 263.373C299.005 263.402 298.85 263.416 298.662 263.416C298.378 263.416 298.1 263.355 297.827 263.233C297.557 263.11 297.333 262.924 297.154 262.674C296.978 262.424 296.89 262.109 296.89 261.728V255.217ZM304.317 263.331V254.603H307.266C307.951 254.603 308.51 254.727 308.945 254.974C309.383 255.218 309.706 255.549 309.917 255.967C310.127 256.385 310.232 256.85 310.232 257.365C310.232 257.879 310.127 258.346 309.917 258.767C309.709 259.187 309.388 259.522 308.954 259.772C308.519 260.019 307.962 260.143 307.283 260.143H305.169V259.206H307.249C307.718 259.206 308.094 259.125 308.378 258.963C308.662 258.801 308.868 258.582 308.996 258.306C309.127 258.028 309.192 257.714 309.192 257.365C309.192 257.015 309.127 256.703 308.996 256.427C308.868 256.152 308.661 255.936 308.374 255.779C308.087 255.62 307.706 255.541 307.232 255.541H305.374V263.331H304.317ZM313.724 263.484C313.309 263.484 312.933 263.406 312.595 263.25C312.257 263.091 311.988 262.862 311.79 262.564C311.591 262.262 311.491 261.899 311.491 261.473C311.491 261.098 311.565 260.794 311.713 260.561C311.861 260.325 312.058 260.14 312.305 260.007C312.552 259.873 312.825 259.774 313.123 259.708C313.424 259.64 313.727 259.586 314.031 259.546C314.429 259.495 314.751 259.457 314.998 259.431C315.248 259.403 315.43 259.356 315.544 259.291C315.66 259.225 315.719 259.112 315.719 258.95V258.916C315.719 258.495 315.603 258.169 315.373 257.936C315.146 257.703 314.801 257.586 314.338 257.586C313.858 257.586 313.481 257.691 313.209 257.902C312.936 258.112 312.744 258.336 312.633 258.575L311.679 258.234C311.849 257.836 312.076 257.527 312.361 257.305C312.647 257.081 312.96 256.924 313.298 256.836C313.639 256.745 313.974 256.7 314.304 256.7C314.514 256.7 314.755 256.725 315.028 256.777C315.304 256.825 315.569 256.926 315.825 257.079C316.084 257.233 316.298 257.464 316.469 257.774C316.639 258.083 316.724 258.498 316.724 259.018V263.331H315.719V262.444H315.667C315.599 262.586 315.486 262.738 315.326 262.9C315.167 263.062 314.956 263.2 314.692 263.314C314.427 263.427 314.105 263.484 313.724 263.484ZM313.878 262.581C314.275 262.581 314.611 262.502 314.883 262.346C315.159 262.19 315.366 261.988 315.505 261.741C315.647 261.494 315.719 261.234 315.719 260.961V260.041C315.676 260.092 315.582 260.139 315.437 260.181C315.295 260.221 315.13 260.257 314.943 260.288C314.758 260.316 314.578 260.342 314.402 260.365C314.228 260.385 314.088 260.402 313.98 260.416C313.719 260.45 313.474 260.505 313.247 260.582C313.022 260.656 312.841 260.768 312.701 260.919C312.565 261.066 312.497 261.268 312.497 261.524C312.497 261.873 312.626 262.137 312.885 262.316C313.146 262.492 313.477 262.581 313.878 262.581ZM318.56 263.331V256.785H319.565V263.331H318.56ZM319.071 255.694C318.875 255.694 318.706 255.627 318.564 255.494C318.425 255.36 318.355 255.2 318.355 255.012C318.355 254.825 318.425 254.664 318.564 254.531C318.706 254.397 318.875 254.331 319.071 254.331C319.267 254.331 319.435 254.397 319.574 254.531C319.716 254.664 319.787 254.825 319.787 255.012C319.787 255.2 319.716 255.36 319.574 255.494C319.435 255.627 319.267 255.694 319.071 255.694ZM323.879 263.467C323.334 263.467 322.852 263.329 322.434 263.054C322.017 262.775 321.69 262.383 321.454 261.877C321.219 261.369 321.101 260.768 321.101 260.075C321.101 259.387 321.219 258.791 321.454 258.285C321.69 257.779 322.018 257.389 322.439 257.113C322.859 256.838 323.345 256.7 323.896 256.7C324.322 256.7 324.659 256.771 324.906 256.913C325.156 257.052 325.346 257.211 325.477 257.39C325.611 257.566 325.714 257.711 325.788 257.825H325.873V254.603H326.879V263.331H325.907V262.325H325.788C325.714 262.444 325.609 262.595 325.473 262.777C325.336 262.956 325.142 263.116 324.889 263.258C324.636 263.397 324.299 263.467 323.879 263.467ZM324.015 262.564C324.419 262.564 324.76 262.458 325.038 262.248C325.317 262.035 325.528 261.741 325.673 261.366C325.818 260.988 325.89 260.552 325.89 260.058C325.89 259.569 325.819 259.142 325.677 258.775C325.535 258.406 325.325 258.119 325.047 257.914C324.768 257.707 324.424 257.603 324.015 257.603C323.589 257.603 323.234 257.713 322.95 257.931C322.669 258.147 322.457 258.441 322.315 258.814C322.176 259.183 322.106 259.598 322.106 260.058C322.106 260.524 322.177 260.947 322.319 261.328C322.464 261.706 322.677 262.007 322.959 262.231C323.243 262.453 323.595 262.564 324.015 262.564Z" fill="black" fill-opacity="0.7"/>
<path d="M320.949 278.711V277.454L324.652 271.603H325.7V273.393H325.061L322.568 277.343V277.412H327.737V278.711H320.949ZM325.112 280.331V278.328L325.129 277.765V271.603H326.62V280.331H325.112Z" fill="#27272A"/>
<path d="M253.363 261.362L259.331 267.33H328.331" stroke="#27272A"/>
<path d="M239.793 286.603V295.331H238.736V286.603H239.793ZM242.781 291.393V295.331H241.775V288.785H242.747V289.808H242.832C242.986 289.475 243.219 289.208 243.531 289.007C243.844 288.802 244.247 288.7 244.741 288.7C245.184 288.7 245.572 288.791 245.905 288.973C246.237 289.152 246.496 289.424 246.68 289.791C246.865 290.154 246.957 290.615 246.957 291.171V295.331H245.952V291.24C245.952 290.725 245.818 290.325 245.551 290.038C245.284 289.748 244.917 289.603 244.452 289.603C244.13 289.603 243.844 289.673 243.591 289.812C243.341 289.951 243.143 290.154 242.998 290.421C242.853 290.689 242.781 291.012 242.781 291.393ZM252.306 295.331V286.603H255.255C255.94 286.603 256.499 286.727 256.934 286.974C257.372 287.218 257.695 287.549 257.906 287.967C258.116 288.385 258.221 288.85 258.221 289.365C258.221 289.879 258.116 290.346 257.906 290.767C257.698 291.187 257.377 291.522 256.943 291.772C256.508 292.019 255.951 292.143 255.272 292.143H253.159V291.206H255.238C255.707 291.206 256.083 291.125 256.367 290.963C256.651 290.801 256.857 290.582 256.985 290.306C257.116 290.028 257.181 289.714 257.181 289.365C257.181 289.015 257.116 288.703 256.985 288.427C256.857 288.152 256.65 287.936 256.363 287.779C256.076 287.62 255.695 287.541 255.221 287.541H253.363V295.331H252.306ZM259.787 295.331V288.785H260.759V289.774H260.827C260.946 289.45 261.162 289.187 261.475 288.985C261.787 288.784 262.139 288.683 262.531 288.683C262.605 288.683 262.698 288.684 262.808 288.687C262.919 288.69 263.003 288.694 263.06 288.7V289.723C263.026 289.714 262.948 289.701 262.825 289.684C262.706 289.664 262.58 289.654 262.446 289.654C262.128 289.654 261.844 289.721 261.594 289.855C261.347 289.985 261.151 290.167 261.006 290.4C260.864 290.63 260.793 290.893 260.793 291.189V295.331H259.787ZM266.712 295.467C266.121 295.467 265.602 295.326 265.156 295.045C264.713 294.764 264.367 294.37 264.117 293.865C263.869 293.359 263.746 292.768 263.746 292.092C263.746 291.41 263.869 290.815 264.117 290.306C264.367 289.798 264.713 289.403 265.156 289.122C265.602 288.841 266.121 288.7 266.712 288.7C267.303 288.7 267.82 288.841 268.263 289.122C268.709 289.403 269.056 289.798 269.303 290.306C269.553 290.815 269.678 291.41 269.678 292.092C269.678 292.768 269.553 293.359 269.303 293.865C269.056 294.37 268.709 294.764 268.263 295.045C267.82 295.326 267.303 295.467 266.712 295.467ZM266.712 294.564C267.161 294.564 267.53 294.448 267.82 294.218C268.11 293.988 268.324 293.686 268.463 293.311C268.602 292.936 268.672 292.529 268.672 292.092C268.672 291.654 268.602 291.247 268.463 290.869C268.324 290.491 268.11 290.186 267.82 289.953C267.53 289.72 267.161 289.603 266.712 289.603C266.263 289.603 265.894 289.72 265.604 289.953C265.314 290.186 265.1 290.491 264.96 290.869C264.821 291.247 264.752 291.654 264.752 292.092C264.752 292.529 264.821 292.936 264.96 293.311C265.1 293.686 265.314 293.988 265.604 294.218C265.894 294.448 266.263 294.564 266.712 294.564ZM273.855 297.921C273.369 297.921 272.952 297.859 272.602 297.734C272.253 297.612 271.961 297.45 271.728 297.248C271.498 297.049 271.315 296.836 271.179 296.609L271.98 296.046C272.071 296.166 272.186 296.302 272.325 296.456C272.464 296.612 272.655 296.747 272.896 296.86C273.14 296.977 273.46 297.035 273.855 297.035C274.383 297.035 274.819 296.907 275.163 296.652C275.507 296.396 275.679 295.995 275.679 295.45V294.12H275.594C275.52 294.24 275.415 294.387 275.278 294.564C275.145 294.737 274.952 294.892 274.699 295.028C274.449 295.162 274.111 295.228 273.684 295.228C273.156 295.228 272.682 295.103 272.261 294.853C271.844 294.603 271.513 294.24 271.268 293.762C271.027 293.285 270.906 292.706 270.906 292.024C270.906 291.353 271.024 290.769 271.26 290.272C271.496 289.772 271.824 289.386 272.244 289.113C272.665 288.838 273.15 288.7 273.702 288.7C274.128 288.7 274.466 288.771 274.716 288.913C274.969 289.052 275.162 289.211 275.295 289.39C275.432 289.566 275.537 289.711 275.611 289.825H275.713V288.785H276.684V295.518C276.684 296.081 276.557 296.538 276.301 296.89C276.048 297.245 275.707 297.505 275.278 297.67C274.852 297.838 274.378 297.921 273.855 297.921ZM273.821 294.325C274.224 294.325 274.565 294.233 274.844 294.048C275.122 293.863 275.334 293.598 275.478 293.251C275.623 292.904 275.696 292.49 275.696 292.007C275.696 291.535 275.625 291.119 275.483 290.758C275.341 290.397 275.13 290.115 274.852 289.91C274.574 289.706 274.23 289.603 273.821 289.603C273.395 289.603 273.04 289.711 272.755 289.927C272.474 290.143 272.263 290.433 272.121 290.796C271.981 291.16 271.912 291.564 271.912 292.007C271.912 292.461 271.983 292.863 272.125 293.213C272.27 293.559 272.483 293.832 272.764 294.031C273.048 294.227 273.4 294.325 273.821 294.325ZM278.525 295.331V288.785H279.497V289.774H279.565C279.684 289.45 279.9 289.187 280.213 288.985C280.525 288.784 280.878 288.683 281.27 288.683C281.344 288.683 281.436 288.684 281.547 288.687C281.657 288.69 281.741 288.694 281.798 288.7V289.723C281.764 289.714 281.686 289.701 281.564 289.684C281.444 289.664 281.318 289.654 281.184 289.654C280.866 289.654 280.582 289.721 280.332 289.855C280.085 289.985 279.889 290.167 279.744 290.4C279.602 290.63 279.531 290.893 279.531 291.189V295.331H278.525ZM285.535 295.467C284.905 295.467 284.361 295.328 283.903 295.049C283.449 294.768 283.098 294.376 282.851 293.873C282.606 293.367 282.484 292.779 282.484 292.109C282.484 291.439 282.606 290.848 282.851 290.336C283.098 289.822 283.442 289.421 283.882 289.135C284.325 288.845 284.842 288.7 285.433 288.7C285.774 288.7 286.111 288.757 286.443 288.87C286.775 288.984 287.078 289.169 287.351 289.424C287.623 289.677 287.841 290.012 288.003 290.43C288.165 290.848 288.246 291.362 288.246 291.973V292.399H283.2V291.529H287.223C287.223 291.16 287.149 290.831 287.001 290.541C286.856 290.251 286.649 290.022 286.379 289.855C286.112 289.687 285.797 289.603 285.433 289.603C285.032 289.603 284.686 289.703 284.393 289.902C284.103 290.098 283.88 290.353 283.724 290.669C283.568 290.984 283.49 291.322 283.49 291.683V292.262C283.49 292.757 283.575 293.176 283.746 293.519C283.919 293.86 284.159 294.12 284.466 294.299C284.773 294.475 285.129 294.564 285.535 294.564C285.8 294.564 286.038 294.527 286.251 294.453C286.467 294.376 286.653 294.262 286.809 294.112C286.966 293.958 287.086 293.768 287.172 293.541L288.143 293.814C288.041 294.143 287.869 294.433 287.628 294.683C287.386 294.93 287.088 295.123 286.733 295.262C286.378 295.399 285.978 295.467 285.535 295.467ZM294.412 290.251L293.508 290.507C293.452 290.356 293.368 290.21 293.257 290.068C293.149 289.923 293.001 289.804 292.814 289.71C292.626 289.616 292.386 289.569 292.094 289.569C291.693 289.569 291.359 289.662 291.092 289.846C290.828 290.028 290.696 290.26 290.696 290.541C290.696 290.791 290.787 290.988 290.969 291.133C291.15 291.278 291.434 291.399 291.821 291.495L292.792 291.734C293.378 291.876 293.814 292.093 294.101 292.386C294.388 292.676 294.531 293.049 294.531 293.507C294.531 293.882 294.423 294.217 294.207 294.512C293.994 294.808 293.696 295.041 293.312 295.211C292.929 295.382 292.483 295.467 291.974 295.467C291.307 295.467 290.754 295.322 290.317 295.032C289.879 294.742 289.602 294.319 289.486 293.762L290.44 293.524C290.531 293.876 290.703 294.14 290.956 294.316C291.211 294.492 291.545 294.581 291.957 294.581C292.426 294.581 292.798 294.481 293.074 294.282C293.352 294.081 293.491 293.839 293.491 293.558C293.491 293.331 293.412 293.14 293.253 292.987C293.094 292.831 292.849 292.714 292.52 292.637L291.429 292.382C290.829 292.24 290.389 292.019 290.108 291.721C289.829 291.42 289.69 291.044 289.69 290.592C289.69 290.223 289.794 289.896 290.001 289.612C290.211 289.328 290.497 289.105 290.858 288.943C291.221 288.781 291.633 288.7 292.094 288.7C292.741 288.7 293.25 288.842 293.619 289.126C293.991 289.41 294.255 289.785 294.412 290.251ZM300.681 290.251L299.778 290.507C299.721 290.356 299.637 290.21 299.526 290.068C299.418 289.923 299.271 289.804 299.083 289.71C298.896 289.616 298.656 289.569 298.363 289.569C297.963 289.569 297.629 289.662 297.362 289.846C297.097 290.028 296.965 290.26 296.965 290.541C296.965 290.791 297.056 290.988 297.238 291.133C297.42 291.278 297.704 291.399 298.09 291.495L299.062 291.734C299.647 291.876 300.083 292.093 300.37 292.386C300.657 292.676 300.801 293.049 300.801 293.507C300.801 293.882 300.693 294.217 300.477 294.512C300.264 294.808 299.965 295.041 299.582 295.211C299.198 295.382 298.752 295.467 298.244 295.467C297.576 295.467 297.024 295.322 296.586 295.032C296.149 294.742 295.872 294.319 295.755 293.762L296.71 293.524C296.801 293.876 296.972 294.14 297.225 294.316C297.481 294.492 297.815 294.581 298.227 294.581C298.695 294.581 299.068 294.481 299.343 294.282C299.622 294.081 299.761 293.839 299.761 293.558C299.761 293.331 299.681 293.14 299.522 292.987C299.363 292.831 299.119 292.714 298.789 292.637L297.698 292.382C297.099 292.24 296.659 292.019 296.377 291.721C296.099 291.42 295.96 291.044 295.96 290.592C295.96 290.223 296.063 289.896 296.271 289.612C296.481 289.328 296.766 289.105 297.127 288.943C297.491 288.781 297.903 288.7 298.363 288.7C299.011 288.7 299.519 288.842 299.889 289.126C300.261 289.41 300.525 289.785 300.681 290.251Z" fill="black" fill-opacity="0.7"/>
<path d="M294.297 310.711V309.454L298 303.603H299.048V305.393H298.409L295.916 309.343V309.412H301.085V310.711H294.297ZM298.46 312.331V310.328L298.477 309.765V303.603H299.969V312.331H298.46Z" fill="#1F0302"/>
<path d="M216.679 282.542L217.679 299.331H301.679" stroke="#1F0302"/>
<path d="M14.6445 199.5H13.5365L16.7411 190.773H17.832L21.0365 199.5H19.9286L17.3206 192.153H17.2525L14.6445 199.5ZM15.0536 196.091H19.5195V197.028H15.0536V196.091ZM24.9186 199.636C24.305 199.636 23.7766 199.491 23.3334 199.202C22.8902 198.912 22.5493 198.513 22.3107 198.004C22.0721 197.496 21.9527 196.915 21.9527 196.261C21.9527 195.597 22.0749 195.01 22.3192 194.501C22.5664 193.99 22.9101 193.591 23.3505 193.304C23.7936 193.014 24.3107 192.869 24.9016 192.869C25.3618 192.869 25.7766 192.955 26.1459 193.125C26.5152 193.295 26.8178 193.534 27.0536 193.841C27.2894 194.148 27.4357 194.506 27.4925 194.915H26.4868C26.4101 194.616 26.2397 194.352 25.9755 194.122C25.7141 193.889 25.3618 193.773 24.9186 193.773C24.5266 193.773 24.1829 193.875 23.8874 194.08C23.5948 194.281 23.3661 194.567 23.2013 194.936C23.0394 195.303 22.9584 195.733 22.9584 196.227C22.9584 196.733 23.038 197.173 23.1971 197.548C23.359 197.923 23.5863 198.214 23.8789 198.422C24.1743 198.629 24.5209 198.733 24.9186 198.733C25.18 198.733 25.4172 198.688 25.6303 198.597C25.8434 198.506 26.0238 198.375 26.1715 198.205C26.3192 198.034 26.4243 197.83 26.4868 197.591H27.4925C27.4357 197.977 27.2951 198.325 27.0706 198.635C26.849 198.942 26.555 199.186 26.1885 199.368C25.8249 199.547 25.4016 199.636 24.9186 199.636ZM31.8093 192.955V193.807H28.4172V192.955H31.8093ZM29.4059 191.386H30.4115V197.625C30.4115 197.909 30.4527 198.122 30.5351 198.264C30.6204 198.403 30.7283 198.497 30.859 198.545C30.9925 198.591 31.1331 198.614 31.2809 198.614C31.3917 198.614 31.4826 198.608 31.5536 198.597C31.6246 198.582 31.6814 198.571 31.724 198.562L31.9286 199.466C31.8604 199.491 31.7652 199.517 31.6431 199.543C31.5209 199.571 31.3661 199.585 31.1786 199.585C30.8945 199.585 30.6161 199.524 30.3434 199.402C30.0735 199.28 29.849 199.094 29.6701 198.844C29.4939 198.594 29.4059 198.278 29.4059 197.898V191.386ZM33.3221 199.5V192.955H34.3277V199.5H33.3221ZM33.8334 191.864C33.6374 191.864 33.4684 191.797 33.3263 191.663C33.1871 191.53 33.1175 191.369 33.1175 191.182C33.1175 190.994 33.1871 190.834 33.3263 190.7C33.4684 190.567 33.6374 190.5 33.8334 190.5C34.0294 190.5 34.1971 190.567 34.3363 190.7C34.4783 190.834 34.5493 190.994 34.5493 191.182C34.5493 191.369 34.4783 191.53 34.3363 191.663C34.1971 191.797 34.0294 191.864 33.8334 191.864ZM41.522 192.955L39.1015 199.5H38.0788L35.6584 192.955H36.7493L38.5561 198.17H38.6243L40.4311 192.955H41.522ZM45.3593 199.636C44.7287 199.636 44.1846 199.497 43.7272 199.219C43.2727 198.938 42.9218 198.545 42.6747 198.043C42.4304 197.537 42.3082 196.949 42.3082 196.278C42.3082 195.608 42.4304 195.017 42.6747 194.506C42.9218 193.991 43.2656 193.591 43.7059 193.304C44.1491 193.014 44.6662 192.869 45.2571 192.869C45.598 192.869 45.9346 192.926 46.267 193.04C46.5994 193.153 46.902 193.338 47.1747 193.594C47.4474 193.847 47.6647 194.182 47.8267 194.599C47.9886 195.017 48.0696 195.531 48.0696 196.142V196.568H43.0241V195.699H47.0468C47.0468 195.33 46.973 195 46.8253 194.71C46.6804 194.42 46.473 194.192 46.2031 194.024C45.936 193.857 45.6207 193.773 45.2571 193.773C44.8565 193.773 44.5099 193.872 44.2173 194.071C43.9275 194.267 43.7045 194.523 43.5483 194.838C43.392 195.153 43.3139 195.491 43.3139 195.852V196.432C43.3139 196.926 43.3991 197.345 43.5696 197.689C43.7429 198.03 43.9829 198.29 44.2897 198.469C44.5966 198.645 44.9531 198.733 45.3593 198.733C45.6235 198.733 45.8622 198.696 46.0753 198.622C46.2912 198.545 46.4772 198.432 46.6335 198.281C46.7897 198.128 46.9105 197.937 46.9957 197.71L47.9673 197.983C47.865 198.312 47.6932 198.602 47.4517 198.852C47.2102 199.099 46.9119 199.293 46.5568 199.432C46.2017 199.568 45.8025 199.636 45.3593 199.636ZM60.4744 195.136C60.4744 196.057 60.3082 196.852 59.9758 197.523C59.6434 198.193 59.1875 198.71 58.6079 199.074C58.0284 199.438 57.3664 199.619 56.6221 199.619C55.8778 199.619 55.2159 199.438 54.6363 199.074C54.0568 198.71 53.6008 198.193 53.2684 197.523C52.936 196.852 52.7699 196.057 52.7699 195.136C52.7699 194.216 52.936 193.42 53.2684 192.75C53.6008 192.08 54.0568 191.562 54.6363 191.199C55.2159 190.835 55.8778 190.653 56.6221 190.653C57.3664 190.653 58.0284 190.835 58.6079 191.199C59.1875 191.562 59.6434 192.08 59.9758 192.75C60.3082 193.42 60.4744 194.216 60.4744 195.136ZM59.4517 195.136C59.4517 194.381 59.3253 193.743 59.0724 193.223C58.8224 192.703 58.4829 192.31 58.0539 192.043C57.6278 191.776 57.1505 191.642 56.6221 191.642C56.0937 191.642 55.615 191.776 55.186 192.043C54.7599 192.31 54.4204 192.703 54.1676 193.223C53.9176 193.743 53.7926 194.381 53.7926 195.136C53.7926 195.892 53.9176 196.53 54.1676 197.05C54.4204 197.57 54.7599 197.963 55.186 198.23C55.615 198.497 56.0937 198.631 56.6221 198.631C57.1505 198.631 57.6278 198.497 58.0539 198.23C58.4829 197.963 58.8224 197.57 59.0724 197.05C59.3253 196.53 59.4517 195.892 59.4517 195.136ZM62.115 199.5V192.955H63.0866V193.943H63.1548C63.2741 193.619 63.49 193.357 63.8025 193.155C64.115 192.953 64.4673 192.852 64.8593 192.852C64.9332 192.852 65.0255 192.854 65.1363 192.857C65.2471 192.859 65.3309 192.864 65.3878 192.869V193.892C65.3537 193.884 65.2755 193.871 65.1534 193.854C65.0341 193.834 64.9076 193.824 64.7741 193.824C64.4559 193.824 64.1718 193.891 63.9218 194.024C63.6747 194.155 63.4787 194.337 63.3338 194.57C63.1917 194.8 63.1207 195.062 63.1207 195.358V199.5H62.115ZM68.8522 199.636C68.3068 199.636 67.8253 199.499 67.4076 199.223C66.99 198.945 66.6633 198.553 66.4275 198.047C66.1917 197.538 66.0738 196.938 66.0738 196.244C66.0738 195.557 66.1917 194.96 66.4275 194.455C66.6633 193.949 66.9914 193.558 67.4119 193.283C67.8324 193.007 68.3182 192.869 68.8693 192.869C69.2954 192.869 69.6321 192.94 69.8792 193.082C70.1292 193.222 70.3196 193.381 70.4503 193.56C70.5838 193.736 70.6875 193.881 70.7613 193.994H70.8466V190.773H71.8522V199.5H70.8807V198.494H70.7613C70.6875 198.614 70.5824 198.764 70.446 198.946C70.3096 199.125 70.115 199.286 69.8622 199.428C69.6093 199.567 69.2727 199.636 68.8522 199.636ZM68.9886 198.733C69.392 198.733 69.7329 198.628 70.0113 198.418C70.2897 198.205 70.5014 197.911 70.6463 197.536C70.7912 197.158 70.8636 196.722 70.8636 196.227C70.8636 195.739 70.7926 195.311 70.6505 194.945C70.5085 194.575 70.2983 194.288 70.0199 194.084C69.7414 193.876 69.3977 193.773 68.9886 193.773C68.5625 193.773 68.2074 193.882 67.9233 194.101C67.642 194.317 67.4304 194.611 67.2883 194.983C67.1491 195.352 67.0795 195.767 67.0795 196.227C67.0795 196.693 67.1505 197.116 67.2926 197.497C67.4375 197.875 67.6505 198.176 67.9318 198.401C68.2159 198.622 68.5682 198.733 68.9886 198.733ZM76.5781 199.636C75.9474 199.636 75.4034 199.497 74.946 199.219C74.4914 198.938 74.1406 198.545 73.8934 198.043C73.6491 197.537 73.527 196.949 73.527 196.278C73.527 195.608 73.6491 195.017 73.8934 194.506C74.1406 193.991 74.4843 193.591 74.9247 193.304C75.3679 193.014 75.8849 192.869 76.4758 192.869C76.8167 192.869 77.1534 192.926 77.4858 193.04C77.8182 193.153 78.1207 193.338 78.3934 193.594C78.6662 193.847 78.8835 194.182 79.0454 194.599C79.2074 195.017 79.2883 195.531 79.2883 196.142V196.568H74.2429V195.699H78.2656C78.2656 195.33 78.1917 195 78.044 194.71C77.8991 194.42 77.6917 194.192 77.4218 194.024C77.1548 193.857 76.8395 193.773 76.4758 193.773C76.0753 193.773 75.7287 193.872 75.436 194.071C75.1463 194.267 74.9233 194.523 74.767 194.838C74.6108 195.153 74.5326 195.491 74.5326 195.852V196.432C74.5326 196.926 74.6179 197.345 74.7883 197.689C74.9616 198.03 75.2017 198.29 75.5085 198.469C75.8153 198.645 76.1718 198.733 76.5781 198.733C76.8423 198.733 77.0809 198.696 77.294 198.622C77.5099 198.545 77.696 198.432 77.8522 198.281C78.0085 198.128 78.1292 197.937 78.2145 197.71L79.1861 197.983C79.0838 198.312 78.9119 198.602 78.6704 198.852C78.4289 199.099 78.1307 199.293 77.7755 199.432C77.4204 199.568 77.0213 199.636 76.5781 199.636ZM80.8182 199.5V192.955H81.7897V193.943H81.8579C81.9772 193.619 82.1932 193.357 82.5057 193.155C82.8182 192.953 83.1704 192.852 83.5625 192.852C83.6363 192.852 83.7287 192.854 83.8395 192.857C83.9503 192.859 84.0341 192.864 84.0909 192.869V193.892C84.0568 193.884 83.9787 193.871 83.8565 193.854C83.7372 193.834 83.6108 193.824 83.4772 193.824C83.1591 193.824 82.875 193.891 82.625 194.024C82.3778 194.155 82.1818 194.337 82.0369 194.57C81.8949 194.8 81.8238 195.062 81.8238 195.358V199.5H80.8182Z" fill="black" fill-opacity="0.7"/>
<path d="M14.0053 216.5V215.358L17.0351 212.388C17.3249 212.095 17.5664 211.835 17.7596 211.608C17.9527 211.381 18.0976 211.161 18.1942 210.947C18.2908 210.734 18.3391 210.507 18.3391 210.266C18.3391 209.99 18.2766 209.754 18.1516 209.558C18.0266 209.359 17.8547 209.206 17.636 209.098C17.4172 208.99 17.1686 208.936 16.8902 208.936C16.6033 208.936 16.3519 208.996 16.136 209.115C15.9201 209.232 15.7525 209.398 15.6331 209.614C15.5167 209.83 15.4584 210.087 15.4584 210.385H13.9542C13.9542 209.831 14.0806 209.349 14.3334 208.94C14.5863 208.531 14.9343 208.214 15.3775 207.99C15.8235 207.766 16.3348 207.653 16.9115 207.653C17.4968 207.653 18.011 207.763 18.4542 207.982C18.8973 208.2 19.2411 208.5 19.4854 208.881C19.7326 209.261 19.8561 209.696 19.8561 210.185C19.8561 210.511 19.7936 210.832 19.6686 211.148C19.5436 211.463 19.3235 211.812 19.0081 212.196C18.6956 212.58 18.2567 213.044 17.6914 213.589L16.1871 215.119V215.179H19.9883V216.5H14.0053ZM21.1133 214.881V213.624L24.8164 207.773H25.8647V209.562H25.2255L22.7326 213.513V213.581H27.9016V214.881H21.1133ZM25.2766 216.5V214.497L25.2936 213.935V207.773H26.7851V216.5H25.2766Z" fill="#884405"/>
<path d="M113.67 203.5L105.23 203.5H13.2297" stroke="#884405"/>
</svg>
