<svg width="390" height="93" viewBox="0 0 390 93" fill="none" xmlns="http://www.w3.org/2000/svg">
<g clip-path="url(#clip0_64_427)">
<rect width="390" height="93" rx="10" fill="#1D1D1D"/>
<g clip-path="url(#clip1_64_427)">
<path d="M100.568 80.5037L110.853 61.1412C112.672 57.7178 113.056 53.7121 111.921 50.0055C110.786 46.2989 108.225 43.195 104.801 41.3765L40.2599 7.09435C36.8364 5.27591 32.8308 4.89192 29.1242 6.02686C25.4176 7.1618 22.3136 9.7227 20.4952 13.1462L10.2105 32.5086" stroke="#334155" stroke-width="9" stroke-linecap="round" stroke-linejoin="round"/>
<path d="M-9.55419 38.5604L-26.6953 70.8311C-28.5137 74.2546 -28.8977 78.2603 -27.7628 81.9669C-26.6278 85.6735 -24.0669 88.7774 -20.6434 90.5958L69.7145 138.591C73.138 140.409 77.1436 140.793 80.8502 139.658C84.5568 138.523 87.6608 135.963 89.4792 132.539L106.62 100.268C108.439 96.8449 108.823 92.8392 107.688 89.1326C106.553 85.426 103.992 82.3221 100.568 80.5037C97.145 78.6852 93.1393 78.3012 89.4327 79.4362C85.7261 80.5711 82.6222 83.132 80.8037 86.5555L73.9473 99.4638L9.40592 65.1816L16.2624 52.2733C18.0808 48.8498 18.4648 44.8442 17.3298 41.1376C16.1949 37.431 13.634 34.327 10.2105 32.5086C6.78703 30.6902 2.78139 30.3062 -0.925214 31.4411C-4.63182 32.5761 -7.73575 35.1369 -9.55419 38.5604Z" stroke="#334155" stroke-width="9" stroke-linecap="round" stroke-linejoin="round"/>
</g>
</g>
<defs>
<clipPath id="clip0_64_427">
<rect width="390" height="93" rx="10" fill="white"/>
</clipPath>
<clipPath id="clip1_64_427">
<rect width="175.395" height="175.395" fill="white" transform="translate(8.79382 -42.7197) rotate(27.9757)"/>
</clipPath>
</defs>
</svg>
